<?xml version="1.0" standalone="no"?>
<!DOCTYPE svg PUBLIC "-//W3C//DTD SVG 20010904//EN"
 "http://www.w3.org/TR/2001/REC-SVG-20010904/DTD/svg10.dtd">
<svg version="1.0" xmlns="http://www.w3.org/2000/svg"
 width="600.000000pt" height="600.000000pt" viewBox="0 0 600.000000 600.000000"
 preserveAspectRatio="xMidYMid meet">
<metadata>
Created by potrace 1.11, written by Peter Selinger 2001-2013
</metadata>
<g transform="translate(0.000000,600.000000) scale(0.100000,-0.100000)"
fill="#000000" stroke="none">
<path d="M2644 5993 c8 -14 4 -15 -76 -17 -25 0 -44 -4 -41 -8 2 -5 -7 -8 -21
-8 -14 0 -27 0 -28 0 -2 -1 -40 -9 -85 -19 -45 -9 -90 -17 -102 -16 -11 1 -18
-2 -15 -7 5 -7 -25 -12 -53 -9 -7 1 -13 -3 -13 -9 0 -6 -6 -10 -12 -9 -7 1
-20 -1 -28 -4 -29 -12 -105 -31 -117 -30 -7 0 -13 -3 -13 -8 0 -5 -3 -8 -7 -7
-5 1 -21 -4 -38 -11 -16 -7 -38 -13 -47 -14 -10 -1 -18 -5 -18 -10 0 -4 -4 -6
-9 -3 -5 4 -11 3 -13 -1 -3 -7 -87 -41 -113 -46 -5 -1 -14 -7 -20 -14 -5 -6
-19 -13 -30 -15 -11 -2 -22 -5 -25 -8 -10 -10 -125 -64 -132 -62 -5 1 -8 -3
-8 -9 0 -5 -4 -7 -10 -4 -5 3 -10 2 -10 -2 0 -5 -13 -17 -30 -26 -16 -10 -30
-16 -30 -13 0 3 -8 -1 -17 -9 -10 -8 -20 -14 -23 -13 -3 2 -16 -7 -29 -19 -13
-12 -27 -20 -31 -18 -5 3 -11 -2 -14 -11 -3 -8 -10 -13 -15 -10 -5 3 -12 -1
-15 -10 -4 -10 -14 -14 -25 -11 -14 3 -18 1 -14 -9 3 -8 0 -14 -6 -14 -6 0
-20 -8 -31 -17 -11 -10 -22 -17 -25 -16 -2 1 -21 -14 -41 -33 -21 -19 -42 -34
-46 -34 -4 0 -16 -8 -26 -17 -10 -10 -40 -36 -67 -58 -26 -22 -55 -48 -64 -57
-8 -10 -22 -18 -30 -18 -8 0 -12 -3 -9 -6 6 -5 -27 -44 -37 -44 -5 0 -135
-131 -135 -136 0 -1 -20 -22 -43 -47 -24 -25 -47 -52 -50 -61 -4 -10 -12 -14
-18 -10 -7 4 -9 3 -5 -4 3 -6 -6 -20 -20 -31 -15 -12 -23 -21 -19 -21 5 0 -17
-32 -83 -115 -4 -5 -18 -26 -32 -45 -13 -19 -27 -37 -30 -40 -3 -3 -14 -22
-25 -42 -10 -20 -23 -34 -27 -32 -5 3 -7 2 -6 -3 4 -14 -13 -53 -23 -53 -6 0
-7 -4 -4 -10 3 -5 2 -10 -2 -10 -5 0 -13 -9 -18 -19 -6 -11 -26 -51 -46 -90
-20 -39 -40 -67 -44 -63 -5 4 -5 2 -2 -4 8 -13 -17 -67 -26 -58 -3 3 -3 -3 0
-15 3 -14 0 -23 -11 -27 -9 -3 -14 -9 -11 -14 2 -4 -5 -24 -15 -46 -11 -21
-20 -44 -20 -52 0 -7 -4 -11 -8 -8 -4 2 -8 -3 -9 -12 -1 -26 -69 -213 -74
-207 -3 2 -5 -6 -6 -18 -1 -46 -3 -58 -10 -54 -5 3 -9 -5 -9 -16 -2 -33 -14
-81 -22 -87 -4 -3 -7 -13 -8 -22 -3 -68 -5 -79 -14 -73 -5 3 -8 0 -5 -7 3 -7
0 -36 -5 -63 -6 -28 -13 -63 -15 -80 -2 -16 -4 -30 -5 -30 -1 0 -4 -27 -7 -60
-2 -33 -8 -64 -13 -70 -13 -17 -10 -599 3 -607 9 -6 9 -8 0 -8 -9 0 -10 -7 -4
-22 5 -13 12 -57 17 -98 4 -41 8 -77 9 -80 1 -3 5 -21 8 -40 12 -59 16 -83 26
-128 4 -23 6 -42 2 -42 -3 0 -1 -4 5 -8 7 -4 14 -23 17 -42 3 -19 10 -47 16
-63 6 -15 8 -27 5 -27 -4 0 -2 -6 4 -13 6 -6 10 -14 10 -17 -1 -6 20 -77 31
-105 5 -11 14 -33 20 -48 6 -16 9 -33 6 -38 -4 -5 -2 -9 3 -9 12 0 43 -86 34
-94 -3 -3 0 -6 6 -6 9 0 20 -20 27 -50 4 -15 65 -132 75 -145 7 -8 10 -15 6
-15 -22 0 232 -395 306 -475 15 -16 28 -33 28 -36 0 -19 277 -303 380 -390
129 -110 302 -233 438 -311 81 -47 198 -110 207 -112 6 -2 37 -15 70 -30 33
-15 101 -43 150 -63 50 -19 97 -38 105 -42 8 -4 53 -18 100 -32 47 -13 87 -27
88 -31 2 -5 7 -6 12 -3 4 2 56 -7 116 -20 105 -24 201 -43 254 -49 130 -17
196 -20 400 -21 205 0 381 8 399 19 3 2 33 7 66 10 33 4 67 9 75 11 8 2 31 7
50 10 61 10 173 36 225 52 132 41 223 72 340 117 17 6 108 50 203 98 287 143
539 324 763 547 120 120 249 269 309 356 18 28 36 52 39 55 20 16 191 301 191
316 0 4 6 15 13 23 12 14 66 130 103 219 8 17 20 47 28 65 8 17 18 44 21 59 4
16 12 28 18 28 6 0 8 3 5 6 -3 3 3 33 14 67 31 101 48 160 54 192 3 17 9 32
12 35 4 3 8 14 8 25 4 48 17 101 28 107 8 6 8 8 -1 8 -9 0 -10 7 -3 25 5 13
11 44 14 67 6 53 15 124 22 163 10 52 12 517 4 585 -5 36 -11 90 -14 120 -4
30 -8 66 -11 80 -3 14 -8 40 -11 59 -3 18 -8 43 -10 55 -2 11 -7 37 -10 56 -3
19 -10 50 -15 68 -5 17 -13 47 -18 65 -21 73 -84 273 -90 282 -3 6 -6 12 -7
15 0 3 -6 18 -12 33 -7 16 -12 30 -12 32 0 27 -158 331 -245 473 -48 78 -147
216 -157 220 -5 2 -8 8 -8 13 0 5 -8 17 -17 27 -10 10 -38 43 -63 73 -25 30
-99 108 -164 174 -66 66 -119 124 -118 128 2 5 -2 6 -7 2 -6 -3 -16 3 -23 15
-7 11 -18 20 -25 20 -7 0 -16 6 -20 13 -4 6 -28 28 -53 47 -25 19 -51 39 -58
45 -7 5 -22 18 -33 28 -10 9 -21 17 -24 17 -14 0 -83 58 -77 65 4 3 3 6 -3 5
-19 -4 -34 0 -48 15 -16 15 -50 36 -139 86 -32 17 -58 36 -58 42 0 6 -3 7 -6
4 -7 -7 -144 61 -156 78 -4 6 -8 6 -8 1 0 -5 -6 -3 -13 3 -8 6 -17 8 -20 4 -4
-3 -7 -1 -7 5 0 7 -6 12 -13 12 -8 0 -27 6 -43 14 -43 21 -86 39 -109 43 -11
2 -24 8 -29 13 -6 6 -18 10 -28 10 -10 0 -18 4 -18 9 0 6 -9 8 -20 6 -11 -2
-20 1 -20 7 0 6 -3 9 -6 6 -3 -4 -21 0 -40 8 -19 8 -34 11 -34 8 0 -4 -7 0
-17 7 -9 8 -18 13 -20 12 -10 -8 -23 -1 -17 10 6 9 5 9 -8 0 -8 -7 -18 -10
-22 -6 -6 7 -24 11 -58 15 -10 1 -18 5 -18 8 0 3 -12 7 -27 8 -16 1 -59 9 -98
18 -38 8 -79 16 -90 17 -11 1 -24 7 -28 12 -6 6 -10 5 -14 -3 -3 -9 -9 -10
-17 -3 -6 5 -21 9 -31 7 -11 -2 -31 4 -45 13 -19 12 -22 13 -15 2 6 -11 4 -13
-11 -5 -26 12 -664 14 -664 1 0 -5 -8 -3 -17 4 -11 10 -14 10 -9 2z"/>
</g>
</svg>
